<?xml version="1.0" encoding="UTF-8"?>
<svg version="1.1" xmlns="http://www.w3.org/2000/svg" width="48" height="48">
<path d="M0 0 C15.84 0 31.68 0 48 0 C48 15.84 48 31.68 48 48 C32.16 48 16.32 48 0 48 C0 32.16 0 16.32 0 0 Z " fill="#FCFCFC" transform="translate(0,0)"/>
<path d="M0 0 C2.5 2.0625 2.5 2.0625 4 5 C4 8.99103508 3.58383011 11.18680806 1.25 14.4375 C-1 16 -1 16 -3.5 16.5 C-6 16 -6 16 -8.3125 14.5625 C-10.71882764 10.90844692 -10.87258175 7.26857557 -10 3 C-7.18003514 -0.75156039 -4.53088016 -0.635913 0 0 Z " fill="#3C424E" transform="translate(42,19)"/>
<path d="M0 0 C2.375 1.6875 2.375 1.6875 4 4 C4 5.65 4 7.3 4 9 C0.7 9 -2.6 9 -6 9 C-6 9.99 -6 10.98 -6 12 C-1.545 11.505 -1.545 11.505 3 11 C3 11.99 3 12.98 3 14 C0 16 0 16 -3.5625 15.8125 C-7 15 -7 15 -9 12 C-9.30078125 9.84375 -9.30078125 9.84375 -9.3125 7.5 C-9.32925781 6.7265625 -9.34601562 5.953125 -9.36328125 5.15625 C-8.47169148 -0.13576671 -4.7765221 -0.6823603 0 0 Z " fill="#212836" transform="translate(26,19)"/>
<path d="M0 0 C1.32 0 2.64 0 4 0 C4 5.61 4 11.22 4 17 C6.97 17 9.94 17 13 17 C13 18.32 13 19.64 13 21 C8.71 21 4.42 21 0 21 C0 14.07 0 7.14 0 0 Z " fill="#797D85" transform="translate(2,14)"/>
<path d="M0 0 C2.5 0.125 2.5 0.125 3.5 1.125 C3.6875 4.5625 3.6875 4.5625 3.5 8.125 C2.84 8.785 2.18 9.445 1.5 10.125 C-2.03571429 9.58928571 -2.03571429 9.58928571 -3.5 8.125 C-3.625 4.625 -3.625 4.625 -3.5 1.125 C-2.5 0.125 -2.5 0.125 0 0 Z " fill="#EBECED" transform="translate(38.5,21.875)"/>
<path d="M0 0 C0.66 0 1.32 0 2 0 C2.33 5.28 2.66 10.56 3 16 C5.64 16.33 8.28 16.66 11 17 C11 17.66 11 18.32 11 19 C7.37 19 3.74 19 0 19 C0 12.73 0 6.46 0 0 Z " fill="#131A29" transform="translate(3,15)"/>
<path d="M0 0 C-0.639375 0.309375 -1.27875 0.61875 -1.9375 0.9375 C-3.93610821 1.8345163 -3.93610821 1.8345163 -5 3 C-5.04092937 5.33297433 -5.04241723 7.66705225 -5 10 C-3.68 10.66 -2.36 11.32 -1 12 C-1 12.66 -1 13.32 -1 14 C-3.70313576 14.21917317 -5.43958382 14.32851983 -7.8125 12.9375 C-9.69643714 9.86370782 -9.43180709 7.51614342 -9 4 C-6.40088873 0.24572816 -4.49476261 -0.49941807 0 0 Z " fill="#1D2332" transform="translate(41,20)"/>
<path d="M0 0 C0.33 0.99 0.66 1.98 1 3 C5.455 2.505 5.455 2.505 10 2 C10 2.99 10 3.98 10 5 C6.1496895 7.56687367 4.41430237 6.83288724 0 6 C-1.125 2.25 -1.125 2.25 0 0 Z " fill="#3C424E" transform="translate(19,28)"/>
<path d="M0 0 C5.53846154 -0.36923077 5.53846154 -0.36923077 7.875 1.5 C8.24625 1.995 8.6175 2.49 9 3 C8.34 3 7.68 3 7 3 C7 4.32 7 5.64 7 7 C4.36 7 1.72 7 -1 7 C-0.34 5.68 0.32 4.36 1 3 C2.32 3 3.64 3 5 3 C5 2.34 5 1.68 5 1 C3.35 1 1.7 1 0 1 C0 0.67 0 0.34 0 0 Z " fill="#81858D" transform="translate(20,19)"/>
<path d="M0 0 C3.3 0 6.6 0 10 0 C9.67 0.66 9.34 1.32 9 2 C6.93359375 2.4140625 6.93359375 2.4140625 4.4375 2.625 C3.61121094 2.69976563 2.78492188 2.77453125 1.93359375 2.8515625 C0.97646484 2.92503906 0.97646484 2.92503906 0 3 C0 2.01 0 1.02 0 0 Z " fill="#E7E8E9" transform="translate(20,28)"/>
<path d="M0 0 C1.32 0 2.64 0 4 0 C3.34 1.65 2.68 3.3 2 5 C1.01 5 0.02 5 -1 5 C-0.67 3.35 -0.34 1.7 0 0 Z " fill="#4C515C" transform="translate(23,13)"/>
</svg>
